<?xml version="1.0" encoding="utf-8"?>
<!-- Generator: Adobe Illustrator 25.0.0, SVG Export Plug-In . SVG Version: 6.00 Build 0)  -->
<svg version="1.1" id="Layer_1" xmlns="http://www.w3.org/2000/svg" xmlns:xlink="http://www.w3.org/1999/xlink" x="0px" y="0px"
	 viewBox="0 0 92.1 30.7" style="enable-background:new 0 0 92.1 30.7;" xml:space="preserve">
<g id="Layer_2_1_">
	<g id="typo">
		<path d="M17.2,0l-1.1,5.6h-5.4L8.3,30.7H3.1L5.6,5.6H0L0.6,0H17.2z"/>
		<path d="M27.9,30.7l1.3-13.2h-6.5l-1.3,13.2h-5.1L19.3,0h5.1l-1.2,11.9h6.5L30.9,0h5.2L33,30.7H27.9z"/>
		<path d="M53.5,0l-1,5.2h-7.7l-0.7,7.4h6.7l-0.5,5.1h-6.7l-0.8,7.8H51l-0.5,5.2H37.1L40.2,0H53.5z"/>
		<path d="M71.9,4c1.4,2.7,1.9,6.4,1.4,11.3c-0.2,2.8-0.9,5.6-2,8.2c-0.9,2.1-2.2,3.9-4,5.3c-1.6,1.2-3.5,1.9-5.5,1.8
			c-1.9,0.1-3.7-0.6-5-1.8c-1.5-1.4-2.4-3.3-2.8-5.3c-0.6-2.7-0.7-5.5-0.3-8.3c0.2-2.8,0.9-5.6,2-8.2c0.8-2.1,2.2-3.9,3.9-5.3
			C61.2,0.6,63.1,0,65.1,0C68-0.1,70.6,1.4,71.9,4z M61,7.5c-0.9,1.6-1.5,4.2-1.9,7.8s-0.3,6.2,0.3,7.9c0.3,1.4,1.6,2.4,3,2.5
			c1.6,0,3-1,3.6-2.4c0.9-1.6,1.5-4.2,1.9-7.9s0.3-6.2-0.3-7.8c-0.3-1.4-1.6-2.4-3.1-2.4C63,5.1,61.6,6.1,61,7.5z"/>
		<path d="M89.1,0.9c1.2,0.7,2.2,1.7,3,2.8l-2.8,3.8c-1-1.5-2.7-2.4-4.5-2.5c-0.8,0-1.6,0.2-2.2,0.7c-0.6,0.5-1,1.3-1,2.1
			c-0.1,0.5,0,1.1,0.2,1.6c0.3,0.5,0.6,0.9,1.1,1.2c0.8,0.5,1.6,0.9,2.5,1.3c1.8,0.7,3.4,1.9,4.5,3.5c0.9,1.4,1.2,3.4,1,5.9
			c-0.1,1.7-0.7,3.4-1.5,4.8c-0.8,1.4-2,2.5-3.4,3.3c-1.4,0.8-3.1,1.2-4.7,1.2c-1.6,0-3.2-0.4-4.6-1.1c-1.3-0.7-2.4-1.8-3.2-3l3-3.9
			c0.6,0.9,1.4,1.6,2.4,2.2c0.9,0.5,1.8,0.7,2.8,0.7c1,0,1.9-0.3,2.6-1C85,24,85.4,23,85.5,22c0.1-0.6,0-1.2-0.2-1.8
			c-0.2-0.5-0.5-1-1-1.3c-0.7-0.5-1.5-1-2.3-1.3c-1.9-0.7-3.6-2-4.8-3.6c-0.9-1.7-1.2-3.6-0.9-5.4c0.1-1.6,0.6-3.1,1.4-4.5
			c0.8-1.3,1.8-2.3,3.1-3C83.4-0.3,86.5-0.4,89.1,0.9L89.1,0.9z"/>
	</g>
</g>
</svg>
